<svg xmlns="http://www.w3.org/2000/svg" width="980" height="390" viewBox="0 0 980 390">
  <defs>
    <linearGradient id="lineGradient" x1="0" y1="0" x2="1" y2="0">
      <stop offset="0%" stop-color="#2563eb" />
      <stop offset="100%" stop-color="#14b8a6" />
    </linearGradient>
    <linearGradient id="areaGradient" x1="0" y1="0" x2="0" y2="1">
      <stop offset="0%" stop-color="#93c5fd" stop-opacity="0.38" />
      <stop offset="100%" stop-color="#ccfbf1" stop-opacity="0.05" />
    </linearGradient>
    <filter id="softShadow" x="-20%" y="-20%" width="140%" height="140%">
      <feDropShadow dx="0" dy="8" stdDeviation="10" flood-color="#0f172a" flood-opacity="0.12" />
    </filter>
  </defs>
  <rect width="100%" height="100%" rx="16" fill="#f8fafc"/>
  <rect x="18" y="18" width="944" height="354" rx="14" fill="#ffffff" filter="url(#softShadow)"/>
  <text x="76" y="42" font-size="22" font-weight="800" font-family="Arial, sans-serif" fill="#0f172a">Labelme 标注进度趋势</text>
  <text x="76" y="64" font-size="13" font-family="Arial, sans-serif" fill="#64748b">当前累计 211/403，完成 52.4%。节点标签显示每次同步后的累计标注数。</text>
  <line x1="76" y1="318.0" x2="936" y2="318.0" stroke="#e2e8f0" stroke-width="1" /><line x1="76" y1="257.0" x2="936" y2="257.0" stroke="#e2e8f0" stroke-width="1" /><line x1="76" y1="195.0" x2="936" y2="195.0" stroke="#e2e8f0" stroke-width="1" /><line x1="76" y1="133.0" x2="936" y2="133.0" stroke="#e2e8f0" stroke-width="1" /><line x1="76" y1="72.0" x2="936" y2="72.0" stroke="#e2e8f0" stroke-width="1" />
  <line x1="76" y1="318" x2="936" y2="318" stroke="#94a3b8" stroke-width="1.2"/>
  <line x1="76" y1="72" x2="76" y2="318" stroke="#94a3b8" stroke-width="1.2"/>
  <text x="62" y="322.0" text-anchor="end" font-size="12" fill="#64748b">0</text><text x="62" y="261.0" text-anchor="end" font-size="12" fill="#64748b">62</text><text x="62" y="199.0" text-anchor="end" font-size="12" fill="#64748b">125</text><text x="62" y="137.0" text-anchor="end" font-size="12" fill="#64748b">188</text><text x="62" y="76.0" text-anchor="end" font-size="12" fill="#64748b">250</text>
  <polygon points="76.0,318.0 76.0,124.2 142.2,123.2 208.3,122.2 274.5,121.2 340.6,120.2 406.8,119.2 472.9,118.2 539.1,117.3 605.2,116.3 671.4,115.3 737.5,113.3 803.7,112.3 869.8,111.4 936.0,110.4 936.0,318.0" fill="url(#areaGradient)" />
  <polyline points="76.0,124.2 142.2,123.2 208.3,122.2 274.5,121.2 340.6,120.2 406.8,119.2 472.9,118.2 539.1,117.3 605.2,116.3 671.4,115.3 737.5,113.3 803.7,112.3 869.8,111.4 936.0,110.4" fill="none" stroke="url(#lineGradient)" stroke-width="4" stroke-linejoin="round" stroke-linecap="round"/>
  <line x1="76.0" y1="124.2" x2="76.0" y2="98.2" stroke="#94a3b8" stroke-width="1" stroke-dasharray="3 4" /><rect x="49.0" y="81.2" width="54" height="24" rx="7" fill="#0f172a" /><text x="76.0" y="97.2" text-anchor="middle" font-size="13" font-weight="700" fill="#ffffff">197</text><circle cx="76.0" cy="124.2" r="7" fill="#ffffff" stroke="#2563eb" stroke-width="3" /><circle cx="76.0" cy="124.2" r="3" fill="#14b8a6" /><line x1="142.2" y1="123.2" x2="142.2" y2="158.2" stroke="#94a3b8" stroke-width="1" stroke-dasharray="3 4" /><rect x="115.2" y="141.2" width="54" height="24" rx="7" fill="#0f172a" /><text x="142.2" y="157.2" text-anchor="middle" font-size="13" font-weight="700" fill="#ffffff">198</text><circle cx="142.2" cy="123.2" r="7" fill="#ffffff" stroke="#2563eb" stroke-width="3" /><circle cx="142.2" cy="123.2" r="3" fill="#14b8a6" /><line x1="208.3" y1="122.2" x2="208.3" y2="96.2" stroke="#94a3b8" stroke-width="1" stroke-dasharray="3 4" /><rect x="181.3" y="79.2" width="54" height="24" rx="7" fill="#0f172a" /><text x="208.3" y="95.2" text-anchor="middle" font-size="13" font-weight="700" fill="#ffffff">199</text><circle cx="208.3" cy="122.2" r="7" fill="#ffffff" stroke="#2563eb" stroke-width="3" /><circle cx="208.3" cy="122.2" r="3" fill="#14b8a6" /><line x1="274.5" y1="121.2" x2="274.5" y2="156.2" stroke="#94a3b8" stroke-width="1" stroke-dasharray="3 4" /><rect x="247.5" y="139.2" width="54" height="24" rx="7" fill="#0f172a" /><text x="274.5" y="155.2" text-anchor="middle" font-size="13" font-weight="700" fill="#ffffff">200</text><circle cx="274.5" cy="121.2" r="7" fill="#ffffff" stroke="#2563eb" stroke-width="3" /><circle cx="274.5" cy="121.2" r="3" fill="#14b8a6" /><line x1="340.6" y1="120.2" x2="340.6" y2="94.2" stroke="#94a3b8" stroke-width="1" stroke-dasharray="3 4" /><rect x="313.6" y="77.2" width="54" height="24" rx="7" fill="#0f172a" /><text x="340.6" y="93.2" text-anchor="middle" font-size="13" font-weight="700" fill="#ffffff">201</text><circle cx="340.6" cy="120.2" r="7" fill="#ffffff" stroke="#2563eb" stroke-width="3" /><circle cx="340.6" cy="120.2" r="3" fill="#14b8a6" /><line x1="406.8" y1="119.2" x2="406.8" y2="154.2" stroke="#94a3b8" stroke-width="1" stroke-dasharray="3 4" /><rect x="379.8" y="137.2" width="54" height="24" rx="7" fill="#0f172a" /><text x="406.8" y="153.2" text-anchor="middle" font-size="13" font-weight="700" fill="#ffffff">202</text><circle cx="406.8" cy="119.2" r="7" fill="#ffffff" stroke="#2563eb" stroke-width="3" /><circle cx="406.8" cy="119.2" r="3" fill="#14b8a6" /><line x1="472.9" y1="118.2" x2="472.9" y2="92.2" stroke="#94a3b8" stroke-width="1" stroke-dasharray="3 4" /><rect x="445.9" y="75.2" width="54" height="24" rx="7" fill="#0f172a" /><text x="472.9" y="91.2" text-anchor="middle" font-size="13" font-weight="700" fill="#ffffff">203</text><circle cx="472.9" cy="118.2" r="7" fill="#ffffff" stroke="#2563eb" stroke-width="3" /><circle cx="472.9" cy="118.2" r="3" fill="#14b8a6" /><line x1="539.1" y1="117.3" x2="539.1" y2="152.3" stroke="#94a3b8" stroke-width="1" stroke-dasharray="3 4" /><rect x="512.1" y="135.3" width="54" height="24" rx="7" fill="#0f172a" /><text x="539.1" y="151.3" text-anchor="middle" font-size="13" font-weight="700" fill="#ffffff">204</text><circle cx="539.1" cy="117.3" r="7" fill="#ffffff" stroke="#2563eb" stroke-width="3" /><circle cx="539.1" cy="117.3" r="3" fill="#14b8a6" /><line x1="605.2" y1="116.3" x2="605.2" y2="90.3" stroke="#94a3b8" stroke-width="1" stroke-dasharray="3 4" /><rect x="578.2" y="73.3" width="54" height="24" rx="7" fill="#0f172a" /><text x="605.2" y="89.3" text-anchor="middle" font-size="13" font-weight="700" fill="#ffffff">205</text><circle cx="605.2" cy="116.3" r="7" fill="#ffffff" stroke="#2563eb" stroke-width="3" /><circle cx="605.2" cy="116.3" r="3" fill="#14b8a6" /><line x1="671.4" y1="115.3" x2="671.4" y2="150.3" stroke="#94a3b8" stroke-width="1" stroke-dasharray="3 4" /><rect x="644.4" y="133.3" width="54" height="24" rx="7" fill="#0f172a" /><text x="671.4" y="149.3" text-anchor="middle" font-size="13" font-weight="700" fill="#ffffff">206</text><circle cx="671.4" cy="115.3" r="7" fill="#ffffff" stroke="#2563eb" stroke-width="3" /><circle cx="671.4" cy="115.3" r="3" fill="#14b8a6" /><line x1="737.5" y1="113.3" x2="737.5" y2="87.3" stroke="#94a3b8" stroke-width="1" stroke-dasharray="3 4" /><rect x="710.5" y="70.3" width="54" height="24" rx="7" fill="#0f172a" /><text x="737.5" y="86.3" text-anchor="middle" font-size="13" font-weight="700" fill="#ffffff">208</text><circle cx="737.5" cy="113.3" r="7" fill="#ffffff" stroke="#2563eb" stroke-width="3" /><circle cx="737.5" cy="113.3" r="3" fill="#14b8a6" /><line x1="803.7" y1="112.3" x2="803.7" y2="147.3" stroke="#94a3b8" stroke-width="1" stroke-dasharray="3 4" /><rect x="776.7" y="130.3" width="54" height="24" rx="7" fill="#0f172a" /><text x="803.7" y="146.3" text-anchor="middle" font-size="13" font-weight="700" fill="#ffffff">209</text><circle cx="803.7" cy="112.3" r="7" fill="#ffffff" stroke="#2563eb" stroke-width="3" /><circle cx="803.7" cy="112.3" r="3" fill="#14b8a6" /><line x1="869.8" y1="111.4" x2="869.8" y2="85.4" stroke="#94a3b8" stroke-width="1" stroke-dasharray="3 4" /><rect x="842.8" y="68.4" width="54" height="24" rx="7" fill="#0f172a" /><text x="869.8" y="84.4" text-anchor="middle" font-size="13" font-weight="700" fill="#ffffff">210</text><circle cx="869.8" cy="111.4" r="7" fill="#ffffff" stroke="#2563eb" stroke-width="3" /><circle cx="869.8" cy="111.4" r="3" fill="#14b8a6" /><line x1="936.0" y1="110.4" x2="936.0" y2="145.4" stroke="#94a3b8" stroke-width="1" stroke-dasharray="3 4" /><rect x="909.0" y="128.4" width="54" height="24" rx="7" fill="#0f172a" /><text x="936.0" y="144.4" text-anchor="middle" font-size="13" font-weight="700" fill="#ffffff">211</text><circle cx="936.0" cy="110.4" r="7" fill="#ffffff" stroke="#2563eb" stroke-width="3" /><circle cx="936.0" cy="110.4" r="3" fill="#14b8a6" />
  <text x="76.0" y="358" text-anchor="middle" font-size="12" fill="#475569">08-09 12:05</text><text x="142.2" y="358" text-anchor="middle" font-size="12" fill="#475569">08-09 12:05</text><text x="208.3" y="358" text-anchor="middle" font-size="12" fill="#475569">08-09 12:07</text><text x="274.5" y="358" text-anchor="middle" font-size="12" fill="#475569">08-09 12:10</text><text x="340.6" y="358" text-anchor="middle" font-size="12" fill="#475569">08-09 20:19</text><text x="406.8" y="358" text-anchor="middle" font-size="12" fill="#475569">08-10 11:33</text><text x="472.9" y="358" text-anchor="middle" font-size="12" fill="#475569">08-10 11:36</text><text x="539.1" y="358" text-anchor="middle" font-size="12" fill="#475569">08-10 11:39</text><text x="605.2" y="358" text-anchor="middle" font-size="12" fill="#475569">08-10 11:44</text><text x="671.4" y="358" text-anchor="middle" font-size="12" fill="#475569">08-10 11:47</text><text x="737.5" y="358" text-anchor="middle" font-size="12" fill="#475569">08-10 11:49</text><text x="803.7" y="358" text-anchor="middle" font-size="12" fill="#475569">08-10 11:50</text><text x="869.8" y="358" text-anchor="middle" font-size="12" fill="#475569">08-10 11:51</text><text x="936.0" y="358" text-anchor="middle" font-size="12" fill="#475569">08-10 11:53</text>
</svg>
