<svg xmlns="http://www.w3.org/2000/svg" width="980" height="390" viewBox="0 0 980 390">
  <defs>
    <linearGradient id="lineGradient" x1="0" y1="0" x2="1" y2="0">
      <stop offset="0%" stop-color="#2563eb" />
      <stop offset="100%" stop-color="#14b8a6" />
    </linearGradient>
    <linearGradient id="areaGradient" x1="0" y1="0" x2="0" y2="1">
      <stop offset="0%" stop-color="#93c5fd" stop-opacity="0.38" />
      <stop offset="100%" stop-color="#ccfbf1" stop-opacity="0.05" />
    </linearGradient>
    <filter id="softShadow" x="-20%" y="-20%" width="140%" height="140%">
      <feDropShadow dx="0" dy="8" stdDeviation="10" flood-color="#0f172a" flood-opacity="0.12" />
    </filter>
  </defs>
  <rect width="100%" height="100%" rx="16" fill="#f8fafc"/>
  <rect x="18" y="18" width="944" height="354" rx="14" fill="#ffffff" filter="url(#softShadow)"/>
  <text x="76" y="42" font-size="22" font-weight="800" font-family="Arial, sans-serif" fill="#0f172a">Labelme 标注进度趋势</text>
  <text x="76" y="64" font-size="13" font-family="Arial, sans-serif" fill="#64748b">当前累计 96/403，完成 23.8%。节点标签显示每次同步后的累计标注数。</text>
  <line x1="76" y1="318.0" x2="936" y2="318.0" stroke="#e2e8f0" stroke-width="1" /><line x1="76" y1="256.5" x2="936" y2="256.5" stroke="#e2e8f0" stroke-width="1" /><line x1="76" y1="195.0" x2="936" y2="195.0" stroke="#e2e8f0" stroke-width="1" /><line x1="76" y1="133.5" x2="936" y2="133.5" stroke="#e2e8f0" stroke-width="1" /><line x1="76" y1="72.0" x2="936" y2="72.0" stroke="#e2e8f0" stroke-width="1" />
  <line x1="76" y1="318" x2="936" y2="318" stroke="#94a3b8" stroke-width="1.2"/>
  <line x1="76" y1="72" x2="76" y2="318" stroke="#94a3b8" stroke-width="1.2"/>
  <text x="62" y="322.0" text-anchor="end" font-size="12" fill="#64748b">0</text><text x="62" y="260.5" text-anchor="end" font-size="12" fill="#64748b">25</text><text x="62" y="199.0" text-anchor="end" font-size="12" fill="#64748b">50</text><text x="62" y="137.5" text-anchor="end" font-size="12" fill="#64748b">75</text><text x="62" y="76.0" text-anchor="end" font-size="12" fill="#64748b">100</text>
  <polygon points="76.0,318.0 76.0,153.2 142.2,150.7 208.3,148.3 274.5,145.8 340.6,143.3 406.8,106.4 472.9,101.5 539.1,99.1 605.2,96.6 671.4,94.1 737.5,91.7 803.7,86.8 869.8,84.3 936.0,81.8 936.0,318.0" fill="url(#areaGradient)" />
  <polyline points="76.0,153.2 142.2,150.7 208.3,148.3 274.5,145.8 340.6,143.3 406.8,106.4 472.9,101.5 539.1,99.1 605.2,96.6 671.4,94.1 737.5,91.7 803.7,86.8 869.8,84.3 936.0,81.8" fill="none" stroke="url(#lineGradient)" stroke-width="4" stroke-linejoin="round" stroke-linecap="round"/>
  <line x1="76.0" y1="153.2" x2="76.0" y2="127.2" stroke="#94a3b8" stroke-width="1" stroke-dasharray="3 4" /><rect x="53.0" y="110.2" width="46" height="24" rx="7" fill="#0f172a" /><text x="76.0" y="126.2" text-anchor="middle" font-size="13" font-weight="700" fill="#ffffff">67</text><circle cx="76.0" cy="153.2" r="7" fill="#ffffff" stroke="#2563eb" stroke-width="3" /><circle cx="76.0" cy="153.2" r="3" fill="#14b8a6" /><line x1="142.2" y1="150.7" x2="142.2" y2="185.7" stroke="#94a3b8" stroke-width="1" stroke-dasharray="3 4" /><rect x="119.2" y="168.7" width="46" height="24" rx="7" fill="#0f172a" /><text x="142.2" y="184.7" text-anchor="middle" font-size="13" font-weight="700" fill="#ffffff">68</text><circle cx="142.2" cy="150.7" r="7" fill="#ffffff" stroke="#2563eb" stroke-width="3" /><circle cx="142.2" cy="150.7" r="3" fill="#14b8a6" /><line x1="208.3" y1="148.3" x2="208.3" y2="122.3" stroke="#94a3b8" stroke-width="1" stroke-dasharray="3 4" /><rect x="185.3" y="105.3" width="46" height="24" rx="7" fill="#0f172a" /><text x="208.3" y="121.3" text-anchor="middle" font-size="13" font-weight="700" fill="#ffffff">69</text><circle cx="208.3" cy="148.3" r="7" fill="#ffffff" stroke="#2563eb" stroke-width="3" /><circle cx="208.3" cy="148.3" r="3" fill="#14b8a6" /><line x1="274.5" y1="145.8" x2="274.5" y2="180.8" stroke="#94a3b8" stroke-width="1" stroke-dasharray="3 4" /><rect x="251.5" y="163.8" width="46" height="24" rx="7" fill="#0f172a" /><text x="274.5" y="179.8" text-anchor="middle" font-size="13" font-weight="700" fill="#ffffff">70</text><circle cx="274.5" cy="145.8" r="7" fill="#ffffff" stroke="#2563eb" stroke-width="3" /><circle cx="274.5" cy="145.8" r="3" fill="#14b8a6" /><line x1="340.6" y1="143.3" x2="340.6" y2="117.3" stroke="#94a3b8" stroke-width="1" stroke-dasharray="3 4" /><rect x="317.6" y="100.3" width="46" height="24" rx="7" fill="#0f172a" /><text x="340.6" y="116.3" text-anchor="middle" font-size="13" font-weight="700" fill="#ffffff">71</text><circle cx="340.6" cy="143.3" r="7" fill="#ffffff" stroke="#2563eb" stroke-width="3" /><circle cx="340.6" cy="143.3" r="3" fill="#14b8a6" /><line x1="406.8" y1="106.4" x2="406.8" y2="141.4" stroke="#94a3b8" stroke-width="1" stroke-dasharray="3 4" /><rect x="383.8" y="124.4" width="46" height="24" rx="7" fill="#0f172a" /><text x="406.8" y="140.4" text-anchor="middle" font-size="13" font-weight="700" fill="#ffffff">86</text><circle cx="406.8" cy="106.4" r="7" fill="#ffffff" stroke="#2563eb" stroke-width="3" /><circle cx="406.8" cy="106.4" r="3" fill="#14b8a6" /><line x1="472.9" y1="101.5" x2="472.9" y2="75.5" stroke="#94a3b8" stroke-width="1" stroke-dasharray="3 4" /><rect x="449.9" y="58.5" width="46" height="24" rx="7" fill="#0f172a" /><text x="472.9" y="74.5" text-anchor="middle" font-size="13" font-weight="700" fill="#ffffff">88</text><circle cx="472.9" cy="101.5" r="7" fill="#ffffff" stroke="#2563eb" stroke-width="3" /><circle cx="472.9" cy="101.5" r="3" fill="#14b8a6" /><line x1="539.1" y1="99.1" x2="539.1" y2="134.1" stroke="#94a3b8" stroke-width="1" stroke-dasharray="3 4" /><rect x="516.1" y="117.1" width="46" height="24" rx="7" fill="#0f172a" /><text x="539.1" y="133.1" text-anchor="middle" font-size="13" font-weight="700" fill="#ffffff">89</text><circle cx="539.1" cy="99.1" r="7" fill="#ffffff" stroke="#2563eb" stroke-width="3" /><circle cx="539.1" cy="99.1" r="3" fill="#14b8a6" /><line x1="605.2" y1="96.6" x2="605.2" y2="70.6" stroke="#94a3b8" stroke-width="1" stroke-dasharray="3 4" /><rect x="582.2" y="53.6" width="46" height="24" rx="7" fill="#0f172a" /><text x="605.2" y="69.6" text-anchor="middle" font-size="13" font-weight="700" fill="#ffffff">90</text><circle cx="605.2" cy="96.6" r="7" fill="#ffffff" stroke="#2563eb" stroke-width="3" /><circle cx="605.2" cy="96.6" r="3" fill="#14b8a6" /><line x1="671.4" y1="94.1" x2="671.4" y2="129.1" stroke="#94a3b8" stroke-width="1" stroke-dasharray="3 4" /><rect x="648.4" y="112.1" width="46" height="24" rx="7" fill="#0f172a" /><text x="671.4" y="128.1" text-anchor="middle" font-size="13" font-weight="700" fill="#ffffff">91</text><circle cx="671.4" cy="94.1" r="7" fill="#ffffff" stroke="#2563eb" stroke-width="3" /><circle cx="671.4" cy="94.1" r="3" fill="#14b8a6" /><line x1="737.5" y1="91.7" x2="737.5" y2="65.7" stroke="#94a3b8" stroke-width="1" stroke-dasharray="3 4" /><rect x="714.5" y="48.7" width="46" height="24" rx="7" fill="#0f172a" /><text x="737.5" y="64.7" text-anchor="middle" font-size="13" font-weight="700" fill="#ffffff">92</text><circle cx="737.5" cy="91.7" r="7" fill="#ffffff" stroke="#2563eb" stroke-width="3" /><circle cx="737.5" cy="91.7" r="3" fill="#14b8a6" /><line x1="803.7" y1="86.8" x2="803.7" y2="121.8" stroke="#94a3b8" stroke-width="1" stroke-dasharray="3 4" /><rect x="780.7" y="104.8" width="46" height="24" rx="7" fill="#0f172a" /><text x="803.7" y="120.8" text-anchor="middle" font-size="13" font-weight="700" fill="#ffffff">94</text><circle cx="803.7" cy="86.8" r="7" fill="#ffffff" stroke="#2563eb" stroke-width="3" /><circle cx="803.7" cy="86.8" r="3" fill="#14b8a6" /><line x1="869.8" y1="84.3" x2="869.8" y2="58.3" stroke="#94a3b8" stroke-width="1" stroke-dasharray="3 4" /><rect x="846.8" y="41.3" width="46" height="24" rx="7" fill="#0f172a" /><text x="869.8" y="57.3" text-anchor="middle" font-size="13" font-weight="700" fill="#ffffff">95</text><circle cx="869.8" cy="84.3" r="7" fill="#ffffff" stroke="#2563eb" stroke-width="3" /><circle cx="869.8" cy="84.3" r="3" fill="#14b8a6" /><line x1="936.0" y1="81.8" x2="936.0" y2="116.8" stroke="#94a3b8" stroke-width="1" stroke-dasharray="3 4" /><rect x="913.0" y="99.8" width="46" height="24" rx="7" fill="#0f172a" /><text x="936.0" y="115.8" text-anchor="middle" font-size="13" font-weight="700" fill="#ffffff">96</text><circle cx="936.0" cy="81.8" r="7" fill="#ffffff" stroke="#2563eb" stroke-width="3" /><circle cx="936.0" cy="81.8" r="3" fill="#14b8a6" />
  <text x="76.0" y="358" text-anchor="middle" font-size="12" fill="#475569">08-04 19:17</text><text x="142.2" y="358" text-anchor="middle" font-size="12" fill="#475569">08-04 19:21</text><text x="208.3" y="358" text-anchor="middle" font-size="12" fill="#475569">08-04 19:23</text><text x="274.5" y="358" text-anchor="middle" font-size="12" fill="#475569">08-04 19:25</text><text x="340.6" y="358" text-anchor="middle" font-size="12" fill="#475569">08-04 19:26</text><text x="406.8" y="358" text-anchor="middle" font-size="12" fill="#475569">08-05 12:37</text><text x="472.9" y="358" text-anchor="middle" font-size="12" fill="#475569">08-05 12:42</text><text x="539.1" y="358" text-anchor="middle" font-size="12" fill="#475569">08-05 12:43</text><text x="605.2" y="358" text-anchor="middle" font-size="12" fill="#475569">08-05 12:53</text><text x="671.4" y="358" text-anchor="middle" font-size="12" fill="#475569">08-05 12:57</text><text x="737.5" y="358" text-anchor="middle" font-size="12" fill="#475569">08-05 15:48</text><text x="803.7" y="358" text-anchor="middle" font-size="12" fill="#475569">08-05 15:48</text><text x="869.8" y="358" text-anchor="middle" font-size="12" fill="#475569">08-05 15:51</text><text x="936.0" y="358" text-anchor="middle" font-size="12" fill="#475569">08-05 15:52</text>
</svg>
