<svg xmlns="http://www.w3.org/2000/svg" width="980" height="390" viewBox="0 0 980 390">
  <defs>
    <linearGradient id="lineGradient" x1="0" y1="0" x2="1" y2="0">
      <stop offset="0%" stop-color="#2563eb" />
      <stop offset="100%" stop-color="#14b8a6" />
    </linearGradient>
    <linearGradient id="areaGradient" x1="0" y1="0" x2="0" y2="1">
      <stop offset="0%" stop-color="#93c5fd" stop-opacity="0.38" />
      <stop offset="100%" stop-color="#ccfbf1" stop-opacity="0.05" />
    </linearGradient>
    <filter id="softShadow" x="-20%" y="-20%" width="140%" height="140%">
      <feDropShadow dx="0" dy="8" stdDeviation="10" flood-color="#0f172a" flood-opacity="0.12" />
    </filter>
  </defs>
  <rect width="100%" height="100%" rx="16" fill="#f8fafc"/>
  <rect x="18" y="18" width="944" height="354" rx="14" fill="#ffffff" filter="url(#softShadow)"/>
  <text x="76" y="42" font-size="22" font-weight="800" font-family="Arial, sans-serif" fill="#0f172a">Labelme 标注进度趋势</text>
  <text x="76" y="64" font-size="13" font-family="Arial, sans-serif" fill="#64748b">当前累计 43/403，完成 10.7%。节点标签显示每次同步后的累计标注数。</text>
  <line x1="76" y1="318.0" x2="936" y2="318.0" stroke="#e2e8f0" stroke-width="1" /><line x1="76" y1="259.0" x2="936" y2="259.0" stroke="#e2e8f0" stroke-width="1" /><line x1="76" y1="195.0" x2="936" y2="195.0" stroke="#e2e8f0" stroke-width="1" /><line x1="76" y1="131.0" x2="936" y2="131.0" stroke="#e2e8f0" stroke-width="1" /><line x1="76" y1="72.0" x2="936" y2="72.0" stroke="#e2e8f0" stroke-width="1" />
  <line x1="76" y1="318" x2="936" y2="318" stroke="#94a3b8" stroke-width="1.2"/>
  <line x1="76" y1="72" x2="76" y2="318" stroke="#94a3b8" stroke-width="1.2"/>
  <text x="62" y="322.0" text-anchor="end" font-size="12" fill="#64748b">0</text><text x="62" y="263.0" text-anchor="end" font-size="12" fill="#64748b">12</text><text x="62" y="199.0" text-anchor="end" font-size="12" fill="#64748b">25</text><text x="62" y="135.0" text-anchor="end" font-size="12" fill="#64748b">38</text><text x="62" y="76.0" text-anchor="end" font-size="12" fill="#64748b">50</text>
  <polygon points="76.0,318.0 76.0,244.2 291.0,121.2 506.0,116.3 721.0,111.4 936.0,106.4 936.0,318.0" fill="url(#areaGradient)" />
  <polyline points="76.0,244.2 291.0,121.2 506.0,116.3 721.0,111.4 936.0,106.4" fill="none" stroke="url(#lineGradient)" stroke-width="4" stroke-linejoin="round" stroke-linecap="round"/>
  <line x1="76.0" y1="244.2" x2="76.0" y2="218.2" stroke="#94a3b8" stroke-width="1" stroke-dasharray="3 4" /><rect x="53.0" y="201.2" width="46" height="24" rx="7" fill="#0f172a" /><text x="76.0" y="217.2" text-anchor="middle" font-size="13" font-weight="700" fill="#ffffff">15</text><circle cx="76.0" cy="244.2" r="7" fill="#ffffff" stroke="#2563eb" stroke-width="3" /><circle cx="76.0" cy="244.2" r="3" fill="#14b8a6" /><line x1="291.0" y1="121.2" x2="291.0" y2="156.2" stroke="#94a3b8" stroke-width="1" stroke-dasharray="3 4" /><rect x="268.0" y="139.2" width="46" height="24" rx="7" fill="#0f172a" /><text x="291.0" y="155.2" text-anchor="middle" font-size="13" font-weight="700" fill="#ffffff">40</text><circle cx="291.0" cy="121.2" r="7" fill="#ffffff" stroke="#2563eb" stroke-width="3" /><circle cx="291.0" cy="121.2" r="3" fill="#14b8a6" /><line x1="506.0" y1="116.3" x2="506.0" y2="90.3" stroke="#94a3b8" stroke-width="1" stroke-dasharray="3 4" /><rect x="483.0" y="73.3" width="46" height="24" rx="7" fill="#0f172a" /><text x="506.0" y="89.3" text-anchor="middle" font-size="13" font-weight="700" fill="#ffffff">41</text><circle cx="506.0" cy="116.3" r="7" fill="#ffffff" stroke="#2563eb" stroke-width="3" /><circle cx="506.0" cy="116.3" r="3" fill="#14b8a6" /><line x1="721.0" y1="111.4" x2="721.0" y2="146.4" stroke="#94a3b8" stroke-width="1" stroke-dasharray="3 4" /><rect x="698.0" y="129.4" width="46" height="24" rx="7" fill="#0f172a" /><text x="721.0" y="145.4" text-anchor="middle" font-size="13" font-weight="700" fill="#ffffff">42</text><circle cx="721.0" cy="111.4" r="7" fill="#ffffff" stroke="#2563eb" stroke-width="3" /><circle cx="721.0" cy="111.4" r="3" fill="#14b8a6" /><line x1="936.0" y1="106.4" x2="936.0" y2="80.4" stroke="#94a3b8" stroke-width="1" stroke-dasharray="3 4" /><rect x="913.0" y="63.4" width="46" height="24" rx="7" fill="#0f172a" /><text x="936.0" y="79.4" text-anchor="middle" font-size="13" font-weight="700" fill="#ffffff">43</text><circle cx="936.0" cy="106.4" r="7" fill="#ffffff" stroke="#2563eb" stroke-width="3" /><circle cx="936.0" cy="106.4" r="3" fill="#14b8a6" />
  <text x="76.0" y="358" text-anchor="middle" font-size="12" fill="#475569">08-02</text><text x="291.0" y="358" text-anchor="middle" font-size="12" fill="#475569">08-03 16:59</text><text x="506.0" y="358" text-anchor="middle" font-size="12" fill="#475569">08-03 17:07</text><text x="721.0" y="358" text-anchor="middle" font-size="12" fill="#475569">08-03 17:18</text><text x="936.0" y="358" text-anchor="middle" font-size="12" fill="#475569">08-03 17:33</text>
</svg>
