<svg xmlns="http://www.w3.org/2000/svg" width="980" height="390" viewBox="0 0 980 390">
  <defs>
    <linearGradient id="lineGradient" x1="0" y1="0" x2="1" y2="0">
      <stop offset="0%" stop-color="#2563eb" />
      <stop offset="100%" stop-color="#14b8a6" />
    </linearGradient>
    <linearGradient id="areaGradient" x1="0" y1="0" x2="0" y2="1">
      <stop offset="0%" stop-color="#93c5fd" stop-opacity="0.38" />
      <stop offset="100%" stop-color="#ccfbf1" stop-opacity="0.05" />
    </linearGradient>
    <filter id="softShadow" x="-20%" y="-20%" width="140%" height="140%">
      <feDropShadow dx="0" dy="8" stdDeviation="10" flood-color="#0f172a" flood-opacity="0.12" />
    </filter>
  </defs>
  <rect width="100%" height="100%" rx="16" fill="#f8fafc"/>
  <rect x="18" y="18" width="944" height="354" rx="14" fill="#ffffff" filter="url(#softShadow)"/>
  <text x="76" y="42" font-size="22" font-weight="800" font-family="Arial, sans-serif" fill="#0f172a">Labelme 标注进度趋势</text>
  <text x="76" y="64" font-size="13" font-family="Arial, sans-serif" fill="#64748b">当前累计 98/403，完成 24.3%。节点标签显示每次同步后的累计标注数。</text>
  <line x1="76" y1="318.0" x2="936" y2="318.0" stroke="#e2e8f0" stroke-width="1" /><line x1="76" y1="255.7" x2="936" y2="255.7" stroke="#e2e8f0" stroke-width="1" /><line x1="76" y1="195.0" x2="936" y2="195.0" stroke="#e2e8f0" stroke-width="1" /><line x1="76" y1="134.3" x2="936" y2="134.3" stroke="#e2e8f0" stroke-width="1" /><line x1="76" y1="72.0" x2="936" y2="72.0" stroke="#e2e8f0" stroke-width="1" />
  <line x1="76" y1="318" x2="936" y2="318" stroke="#94a3b8" stroke-width="1.2"/>
  <line x1="76" y1="72" x2="76" y2="318" stroke="#94a3b8" stroke-width="1.2"/>
  <text x="62" y="322.0" text-anchor="end" font-size="12" fill="#64748b">0</text><text x="62" y="259.7" text-anchor="end" font-size="12" fill="#64748b">38</text><text x="62" y="199.0" text-anchor="end" font-size="12" fill="#64748b">75</text><text x="62" y="138.3" text-anchor="end" font-size="12" fill="#64748b">112</text><text x="62" y="76.0" text-anchor="end" font-size="12" fill="#64748b">150</text>
  <polygon points="76.0,318.0 76.0,204.8 142.2,203.2 208.3,201.6 274.5,177.0 340.6,173.7 406.8,172.0 472.9,170.4 539.1,168.8 605.2,167.1 671.4,163.8 737.5,162.2 803.7,160.6 869.8,158.9 936.0,157.3 936.0,318.0" fill="url(#areaGradient)" />
  <polyline points="76.0,204.8 142.2,203.2 208.3,201.6 274.5,177.0 340.6,173.7 406.8,172.0 472.9,170.4 539.1,168.8 605.2,167.1 671.4,163.8 737.5,162.2 803.7,160.6 869.8,158.9 936.0,157.3" fill="none" stroke="url(#lineGradient)" stroke-width="4" stroke-linejoin="round" stroke-linecap="round"/>
  <line x1="76.0" y1="204.8" x2="76.0" y2="178.8" stroke="#94a3b8" stroke-width="1" stroke-dasharray="3 4" /><rect x="53.0" y="161.8" width="46" height="24" rx="7" fill="#0f172a" /><text x="76.0" y="177.8" text-anchor="middle" font-size="13" font-weight="700" fill="#ffffff">69</text><circle cx="76.0" cy="204.8" r="7" fill="#ffffff" stroke="#2563eb" stroke-width="3" /><circle cx="76.0" cy="204.8" r="3" fill="#14b8a6" /><line x1="142.2" y1="203.2" x2="142.2" y2="238.2" stroke="#94a3b8" stroke-width="1" stroke-dasharray="3 4" /><rect x="119.2" y="221.2" width="46" height="24" rx="7" fill="#0f172a" /><text x="142.2" y="237.2" text-anchor="middle" font-size="13" font-weight="700" fill="#ffffff">70</text><circle cx="142.2" cy="203.2" r="7" fill="#ffffff" stroke="#2563eb" stroke-width="3" /><circle cx="142.2" cy="203.2" r="3" fill="#14b8a6" /><line x1="208.3" y1="201.6" x2="208.3" y2="175.6" stroke="#94a3b8" stroke-width="1" stroke-dasharray="3 4" /><rect x="185.3" y="158.6" width="46" height="24" rx="7" fill="#0f172a" /><text x="208.3" y="174.6" text-anchor="middle" font-size="13" font-weight="700" fill="#ffffff">71</text><circle cx="208.3" cy="201.6" r="7" fill="#ffffff" stroke="#2563eb" stroke-width="3" /><circle cx="208.3" cy="201.6" r="3" fill="#14b8a6" /><line x1="274.5" y1="177.0" x2="274.5" y2="212.0" stroke="#94a3b8" stroke-width="1" stroke-dasharray="3 4" /><rect x="251.5" y="195.0" width="46" height="24" rx="7" fill="#0f172a" /><text x="274.5" y="211.0" text-anchor="middle" font-size="13" font-weight="700" fill="#ffffff">86</text><circle cx="274.5" cy="177.0" r="7" fill="#ffffff" stroke="#2563eb" stroke-width="3" /><circle cx="274.5" cy="177.0" r="3" fill="#14b8a6" /><line x1="340.6" y1="173.7" x2="340.6" y2="147.7" stroke="#94a3b8" stroke-width="1" stroke-dasharray="3 4" /><rect x="317.6" y="130.7" width="46" height="24" rx="7" fill="#0f172a" /><text x="340.6" y="146.7" text-anchor="middle" font-size="13" font-weight="700" fill="#ffffff">88</text><circle cx="340.6" cy="173.7" r="7" fill="#ffffff" stroke="#2563eb" stroke-width="3" /><circle cx="340.6" cy="173.7" r="3" fill="#14b8a6" /><line x1="406.8" y1="172.0" x2="406.8" y2="207.0" stroke="#94a3b8" stroke-width="1" stroke-dasharray="3 4" /><rect x="383.8" y="190.0" width="46" height="24" rx="7" fill="#0f172a" /><text x="406.8" y="206.0" text-anchor="middle" font-size="13" font-weight="700" fill="#ffffff">89</text><circle cx="406.8" cy="172.0" r="7" fill="#ffffff" stroke="#2563eb" stroke-width="3" /><circle cx="406.8" cy="172.0" r="3" fill="#14b8a6" /><line x1="472.9" y1="170.4" x2="472.9" y2="144.4" stroke="#94a3b8" stroke-width="1" stroke-dasharray="3 4" /><rect x="449.9" y="127.4" width="46" height="24" rx="7" fill="#0f172a" /><text x="472.9" y="143.4" text-anchor="middle" font-size="13" font-weight="700" fill="#ffffff">90</text><circle cx="472.9" cy="170.4" r="7" fill="#ffffff" stroke="#2563eb" stroke-width="3" /><circle cx="472.9" cy="170.4" r="3" fill="#14b8a6" /><line x1="539.1" y1="168.8" x2="539.1" y2="203.8" stroke="#94a3b8" stroke-width="1" stroke-dasharray="3 4" /><rect x="516.1" y="186.8" width="46" height="24" rx="7" fill="#0f172a" /><text x="539.1" y="202.8" text-anchor="middle" font-size="13" font-weight="700" fill="#ffffff">91</text><circle cx="539.1" cy="168.8" r="7" fill="#ffffff" stroke="#2563eb" stroke-width="3" /><circle cx="539.1" cy="168.8" r="3" fill="#14b8a6" /><line x1="605.2" y1="167.1" x2="605.2" y2="141.1" stroke="#94a3b8" stroke-width="1" stroke-dasharray="3 4" /><rect x="582.2" y="124.1" width="46" height="24" rx="7" fill="#0f172a" /><text x="605.2" y="140.1" text-anchor="middle" font-size="13" font-weight="700" fill="#ffffff">92</text><circle cx="605.2" cy="167.1" r="7" fill="#ffffff" stroke="#2563eb" stroke-width="3" /><circle cx="605.2" cy="167.1" r="3" fill="#14b8a6" /><line x1="671.4" y1="163.8" x2="671.4" y2="198.8" stroke="#94a3b8" stroke-width="1" stroke-dasharray="3 4" /><rect x="648.4" y="181.8" width="46" height="24" rx="7" fill="#0f172a" /><text x="671.4" y="197.8" text-anchor="middle" font-size="13" font-weight="700" fill="#ffffff">94</text><circle cx="671.4" cy="163.8" r="7" fill="#ffffff" stroke="#2563eb" stroke-width="3" /><circle cx="671.4" cy="163.8" r="3" fill="#14b8a6" /><line x1="737.5" y1="162.2" x2="737.5" y2="136.2" stroke="#94a3b8" stroke-width="1" stroke-dasharray="3 4" /><rect x="714.5" y="119.2" width="46" height="24" rx="7" fill="#0f172a" /><text x="737.5" y="135.2" text-anchor="middle" font-size="13" font-weight="700" fill="#ffffff">95</text><circle cx="737.5" cy="162.2" r="7" fill="#ffffff" stroke="#2563eb" stroke-width="3" /><circle cx="737.5" cy="162.2" r="3" fill="#14b8a6" /><line x1="803.7" y1="160.6" x2="803.7" y2="195.6" stroke="#94a3b8" stroke-width="1" stroke-dasharray="3 4" /><rect x="780.7" y="178.6" width="46" height="24" rx="7" fill="#0f172a" /><text x="803.7" y="194.6" text-anchor="middle" font-size="13" font-weight="700" fill="#ffffff">96</text><circle cx="803.7" cy="160.6" r="7" fill="#ffffff" stroke="#2563eb" stroke-width="3" /><circle cx="803.7" cy="160.6" r="3" fill="#14b8a6" /><line x1="869.8" y1="158.9" x2="869.8" y2="132.9" stroke="#94a3b8" stroke-width="1" stroke-dasharray="3 4" /><rect x="846.8" y="115.9" width="46" height="24" rx="7" fill="#0f172a" /><text x="869.8" y="131.9" text-anchor="middle" font-size="13" font-weight="700" fill="#ffffff">97</text><circle cx="869.8" cy="158.9" r="7" fill="#ffffff" stroke="#2563eb" stroke-width="3" /><circle cx="869.8" cy="158.9" r="3" fill="#14b8a6" /><line x1="936.0" y1="157.3" x2="936.0" y2="192.3" stroke="#94a3b8" stroke-width="1" stroke-dasharray="3 4" /><rect x="913.0" y="175.3" width="46" height="24" rx="7" fill="#0f172a" /><text x="936.0" y="191.3" text-anchor="middle" font-size="13" font-weight="700" fill="#ffffff">98</text><circle cx="936.0" cy="157.3" r="7" fill="#ffffff" stroke="#2563eb" stroke-width="3" /><circle cx="936.0" cy="157.3" r="3" fill="#14b8a6" />
  <text x="76.0" y="358" text-anchor="middle" font-size="12" fill="#475569">08-04 19:23</text><text x="142.2" y="358" text-anchor="middle" font-size="12" fill="#475569">08-04 19:25</text><text x="208.3" y="358" text-anchor="middle" font-size="12" fill="#475569">08-04 19:26</text><text x="274.5" y="358" text-anchor="middle" font-size="12" fill="#475569">08-05 12:37</text><text x="340.6" y="358" text-anchor="middle" font-size="12" fill="#475569">08-05 12:42</text><text x="406.8" y="358" text-anchor="middle" font-size="12" fill="#475569">08-05 12:43</text><text x="472.9" y="358" text-anchor="middle" font-size="12" fill="#475569">08-05 12:53</text><text x="539.1" y="358" text-anchor="middle" font-size="12" fill="#475569">08-05 12:57</text><text x="605.2" y="358" text-anchor="middle" font-size="12" fill="#475569">08-05 15:48</text><text x="671.4" y="358" text-anchor="middle" font-size="12" fill="#475569">08-05 15:48</text><text x="737.5" y="358" text-anchor="middle" font-size="12" fill="#475569">08-05 15:51</text><text x="803.7" y="358" text-anchor="middle" font-size="12" fill="#475569">08-05 15:52</text><text x="869.8" y="358" text-anchor="middle" font-size="12" fill="#475569">08-05 15:55</text><text x="936.0" y="358" text-anchor="middle" font-size="12" fill="#475569">08-05 15:59</text>
</svg>
