<svg xmlns="http://www.w3.org/2000/svg" width="980" height="390" viewBox="0 0 980 390">
  <defs>
    <linearGradient id="lineGradient" x1="0" y1="0" x2="1" y2="0">
      <stop offset="0%" stop-color="#2563eb" />
      <stop offset="100%" stop-color="#14b8a6" />
    </linearGradient>
    <linearGradient id="areaGradient" x1="0" y1="0" x2="0" y2="1">
      <stop offset="0%" stop-color="#93c5fd" stop-opacity="0.38" />
      <stop offset="100%" stop-color="#ccfbf1" stop-opacity="0.05" />
    </linearGradient>
    <filter id="softShadow" x="-20%" y="-20%" width="140%" height="140%">
      <feDropShadow dx="0" dy="8" stdDeviation="10" flood-color="#0f172a" flood-opacity="0.12" />
    </filter>
  </defs>
  <rect width="100%" height="100%" rx="16" fill="#f8fafc"/>
  <rect x="18" y="18" width="944" height="354" rx="14" fill="#ffffff" filter="url(#softShadow)"/>
  <text x="76" y="42" font-size="22" font-weight="800" font-family="Arial, sans-serif" fill="#0f172a">Labelme 标注进度趋势</text>
  <text x="76" y="64" font-size="13" font-family="Arial, sans-serif" fill="#64748b">当前累计 287/403，完成 71.2%。节点标签显示每次同步后的累计标注数。</text>
  <line x1="76" y1="318.0" x2="936" y2="318.0" stroke="#e2e8f0" stroke-width="1" /><line x1="76" y1="256.5" x2="936" y2="256.5" stroke="#e2e8f0" stroke-width="1" /><line x1="76" y1="195.0" x2="936" y2="195.0" stroke="#e2e8f0" stroke-width="1" /><line x1="76" y1="133.5" x2="936" y2="133.5" stroke="#e2e8f0" stroke-width="1" /><line x1="76" y1="72.0" x2="936" y2="72.0" stroke="#e2e8f0" stroke-width="1" />
  <line x1="76" y1="318" x2="936" y2="318" stroke="#94a3b8" stroke-width="1.2"/>
  <line x1="76" y1="72" x2="76" y2="318" stroke="#94a3b8" stroke-width="1.2"/>
  <text x="62" y="322.0" text-anchor="end" font-size="12" fill="#64748b">0</text><text x="62" y="260.5" text-anchor="end" font-size="12" fill="#64748b">75</text><text x="62" y="199.0" text-anchor="end" font-size="12" fill="#64748b">150</text><text x="62" y="137.5" text-anchor="end" font-size="12" fill="#64748b">225</text><text x="62" y="76.0" text-anchor="end" font-size="12" fill="#64748b">300</text>
  <polygon points="76.0,318.0 76.0,95.8 142.2,95.0 208.3,93.3 274.5,91.7 340.6,90.9 406.8,90.0 472.9,89.2 539.1,88.4 605.2,87.6 671.4,86.8 737.5,85.9 803.7,84.3 869.8,83.5 936.0,82.7 936.0,318.0" fill="url(#areaGradient)" />
  <polyline points="76.0,95.8 142.2,95.0 208.3,93.3 274.5,91.7 340.6,90.9 406.8,90.0 472.9,89.2 539.1,88.4 605.2,87.6 671.4,86.8 737.5,85.9 803.7,84.3 869.8,83.5 936.0,82.7" fill="none" stroke="url(#lineGradient)" stroke-width="4" stroke-linejoin="round" stroke-linecap="round"/>
  <line x1="76.0" y1="95.8" x2="76.0" y2="69.8" stroke="#94a3b8" stroke-width="1" stroke-dasharray="3 4" /><rect x="49.0" y="52.8" width="54" height="24" rx="7" fill="#0f172a" /><text x="76.0" y="68.8" text-anchor="middle" font-size="13" font-weight="700" fill="#ffffff">271</text><circle cx="76.0" cy="95.8" r="7" fill="#ffffff" stroke="#2563eb" stroke-width="3" /><circle cx="76.0" cy="95.8" r="3" fill="#14b8a6" /><line x1="142.2" y1="95.0" x2="142.2" y2="130.0" stroke="#94a3b8" stroke-width="1" stroke-dasharray="3 4" /><rect x="115.2" y="113.0" width="54" height="24" rx="7" fill="#0f172a" /><text x="142.2" y="129.0" text-anchor="middle" font-size="13" font-weight="700" fill="#ffffff">272</text><circle cx="142.2" cy="95.0" r="7" fill="#ffffff" stroke="#2563eb" stroke-width="3" /><circle cx="142.2" cy="95.0" r="3" fill="#14b8a6" /><line x1="208.3" y1="93.3" x2="208.3" y2="67.3" stroke="#94a3b8" stroke-width="1" stroke-dasharray="3 4" /><rect x="181.3" y="50.3" width="54" height="24" rx="7" fill="#0f172a" /><text x="208.3" y="66.3" text-anchor="middle" font-size="13" font-weight="700" fill="#ffffff">274</text><circle cx="208.3" cy="93.3" r="7" fill="#ffffff" stroke="#2563eb" stroke-width="3" /><circle cx="208.3" cy="93.3" r="3" fill="#14b8a6" /><line x1="274.5" y1="91.7" x2="274.5" y2="126.7" stroke="#94a3b8" stroke-width="1" stroke-dasharray="3 4" /><rect x="247.5" y="109.7" width="54" height="24" rx="7" fill="#0f172a" /><text x="274.5" y="125.7" text-anchor="middle" font-size="13" font-weight="700" fill="#ffffff">276</text><circle cx="274.5" cy="91.7" r="7" fill="#ffffff" stroke="#2563eb" stroke-width="3" /><circle cx="274.5" cy="91.7" r="3" fill="#14b8a6" /><line x1="340.6" y1="90.9" x2="340.6" y2="64.9" stroke="#94a3b8" stroke-width="1" stroke-dasharray="3 4" /><rect x="313.6" y="47.9" width="54" height="24" rx="7" fill="#0f172a" /><text x="340.6" y="63.9" text-anchor="middle" font-size="13" font-weight="700" fill="#ffffff">277</text><circle cx="340.6" cy="90.9" r="7" fill="#ffffff" stroke="#2563eb" stroke-width="3" /><circle cx="340.6" cy="90.9" r="3" fill="#14b8a6" /><line x1="406.8" y1="90.0" x2="406.8" y2="125.0" stroke="#94a3b8" stroke-width="1" stroke-dasharray="3 4" /><rect x="379.8" y="108.0" width="54" height="24" rx="7" fill="#0f172a" /><text x="406.8" y="124.0" text-anchor="middle" font-size="13" font-weight="700" fill="#ffffff">278</text><circle cx="406.8" cy="90.0" r="7" fill="#ffffff" stroke="#2563eb" stroke-width="3" /><circle cx="406.8" cy="90.0" r="3" fill="#14b8a6" /><line x1="472.9" y1="89.2" x2="472.9" y2="63.2" stroke="#94a3b8" stroke-width="1" stroke-dasharray="3 4" /><rect x="445.9" y="46.2" width="54" height="24" rx="7" fill="#0f172a" /><text x="472.9" y="62.2" text-anchor="middle" font-size="13" font-weight="700" fill="#ffffff">279</text><circle cx="472.9" cy="89.2" r="7" fill="#ffffff" stroke="#2563eb" stroke-width="3" /><circle cx="472.9" cy="89.2" r="3" fill="#14b8a6" /><line x1="539.1" y1="88.4" x2="539.1" y2="123.4" stroke="#94a3b8" stroke-width="1" stroke-dasharray="3 4" /><rect x="512.1" y="106.4" width="54" height="24" rx="7" fill="#0f172a" /><text x="539.1" y="122.4" text-anchor="middle" font-size="13" font-weight="700" fill="#ffffff">280</text><circle cx="539.1" cy="88.4" r="7" fill="#ffffff" stroke="#2563eb" stroke-width="3" /><circle cx="539.1" cy="88.4" r="3" fill="#14b8a6" /><line x1="605.2" y1="87.6" x2="605.2" y2="61.6" stroke="#94a3b8" stroke-width="1" stroke-dasharray="3 4" /><rect x="578.2" y="44.6" width="54" height="24" rx="7" fill="#0f172a" /><text x="605.2" y="60.6" text-anchor="middle" font-size="13" font-weight="700" fill="#ffffff">281</text><circle cx="605.2" cy="87.6" r="7" fill="#ffffff" stroke="#2563eb" stroke-width="3" /><circle cx="605.2" cy="87.6" r="3" fill="#14b8a6" /><line x1="671.4" y1="86.8" x2="671.4" y2="121.8" stroke="#94a3b8" stroke-width="1" stroke-dasharray="3 4" /><rect x="644.4" y="104.8" width="54" height="24" rx="7" fill="#0f172a" /><text x="671.4" y="120.8" text-anchor="middle" font-size="13" font-weight="700" fill="#ffffff">282</text><circle cx="671.4" cy="86.8" r="7" fill="#ffffff" stroke="#2563eb" stroke-width="3" /><circle cx="671.4" cy="86.8" r="3" fill="#14b8a6" /><line x1="737.5" y1="85.9" x2="737.5" y2="59.9" stroke="#94a3b8" stroke-width="1" stroke-dasharray="3 4" /><rect x="710.5" y="42.9" width="54" height="24" rx="7" fill="#0f172a" /><text x="737.5" y="58.9" text-anchor="middle" font-size="13" font-weight="700" fill="#ffffff">283</text><circle cx="737.5" cy="85.9" r="7" fill="#ffffff" stroke="#2563eb" stroke-width="3" /><circle cx="737.5" cy="85.9" r="3" fill="#14b8a6" /><line x1="803.7" y1="84.3" x2="803.7" y2="119.3" stroke="#94a3b8" stroke-width="1" stroke-dasharray="3 4" /><rect x="776.7" y="102.3" width="54" height="24" rx="7" fill="#0f172a" /><text x="803.7" y="118.3" text-anchor="middle" font-size="13" font-weight="700" fill="#ffffff">285</text><circle cx="803.7" cy="84.3" r="7" fill="#ffffff" stroke="#2563eb" stroke-width="3" /><circle cx="803.7" cy="84.3" r="3" fill="#14b8a6" /><line x1="869.8" y1="83.5" x2="869.8" y2="57.5" stroke="#94a3b8" stroke-width="1" stroke-dasharray="3 4" /><rect x="842.8" y="40.5" width="54" height="24" rx="7" fill="#0f172a" /><text x="869.8" y="56.5" text-anchor="middle" font-size="13" font-weight="700" fill="#ffffff">286</text><circle cx="869.8" cy="83.5" r="7" fill="#ffffff" stroke="#2563eb" stroke-width="3" /><circle cx="869.8" cy="83.5" r="3" fill="#14b8a6" /><line x1="936.0" y1="82.7" x2="936.0" y2="117.7" stroke="#94a3b8" stroke-width="1" stroke-dasharray="3 4" /><rect x="909.0" y="100.7" width="54" height="24" rx="7" fill="#0f172a" /><text x="936.0" y="116.7" text-anchor="middle" font-size="13" font-weight="700" fill="#ffffff">287</text><circle cx="936.0" cy="82.7" r="7" fill="#ffffff" stroke="#2563eb" stroke-width="3" /><circle cx="936.0" cy="82.7" r="3" fill="#14b8a6" />
  <text x="76.0" y="358" text-anchor="middle" font-size="12" fill="#475569">08-12 23:52</text><text x="142.2" y="358" text-anchor="middle" font-size="12" fill="#475569">08-12 23:58</text><text x="208.3" y="358" text-anchor="middle" font-size="12" fill="#475569">08-12 23:59</text><text x="274.5" y="358" text-anchor="middle" font-size="12" fill="#475569">08-12 23:59</text><text x="340.6" y="358" text-anchor="middle" font-size="12" fill="#475569">08-13 00:03</text><text x="406.8" y="358" text-anchor="middle" font-size="12" fill="#475569">08-13 00:06</text><text x="472.9" y="358" text-anchor="middle" font-size="12" fill="#475569">08-13 00:19</text><text x="539.1" y="358" text-anchor="middle" font-size="12" fill="#475569">08-13 00:21</text><text x="605.2" y="358" text-anchor="middle" font-size="12" fill="#475569">08-13 00:23</text><text x="671.4" y="358" text-anchor="middle" font-size="12" fill="#475569">08-13 00:25</text><text x="737.5" y="358" text-anchor="middle" font-size="12" fill="#475569">08-13 00:26</text><text x="803.7" y="358" text-anchor="middle" font-size="12" fill="#475569">08-13 10:56</text><text x="869.8" y="358" text-anchor="middle" font-size="12" fill="#475569">08-13 10:59</text><text x="936.0" y="358" text-anchor="middle" font-size="12" fill="#475569">08-13 11:03</text>
</svg>
