<svg xmlns="http://www.w3.org/2000/svg" width="980" height="390" viewBox="0 0 980 390">
  <defs>
    <linearGradient id="lineGradient" x1="0" y1="0" x2="1" y2="0">
      <stop offset="0%" stop-color="#2563eb" />
      <stop offset="100%" stop-color="#14b8a6" />
    </linearGradient>
    <linearGradient id="areaGradient" x1="0" y1="0" x2="0" y2="1">
      <stop offset="0%" stop-color="#93c5fd" stop-opacity="0.38" />
      <stop offset="100%" stop-color="#ccfbf1" stop-opacity="0.05" />
    </linearGradient>
    <filter id="softShadow" x="-20%" y="-20%" width="140%" height="140%">
      <feDropShadow dx="0" dy="8" stdDeviation="10" flood-color="#0f172a" flood-opacity="0.12" />
    </filter>
  </defs>
  <rect width="100%" height="100%" rx="16" fill="#f8fafc"/>
  <rect x="18" y="18" width="944" height="354" rx="14" fill="#ffffff" filter="url(#softShadow)"/>
  <text x="76" y="42" font-size="22" font-weight="800" font-family="Arial, sans-serif" fill="#0f172a">Labelme 标注进度趋势</text>
  <text x="76" y="64" font-size="13" font-family="Arial, sans-serif" fill="#64748b">当前累计 308/403，完成 76.4%。节点标签显示每次同步后的累计标注数。</text>
  <line x1="76" y1="318.0" x2="936" y2="318.0" stroke="#e2e8f0" stroke-width="1" /><line x1="76" y1="256.1" x2="936" y2="256.1" stroke="#e2e8f0" stroke-width="1" /><line x1="76" y1="195.0" x2="936" y2="195.0" stroke="#e2e8f0" stroke-width="1" /><line x1="76" y1="133.9" x2="936" y2="133.9" stroke="#e2e8f0" stroke-width="1" /><line x1="76" y1="72.0" x2="936" y2="72.0" stroke="#e2e8f0" stroke-width="1" />
  <line x1="76" y1="318" x2="936" y2="318" stroke="#94a3b8" stroke-width="1.2"/>
  <line x1="76" y1="72" x2="76" y2="318" stroke="#94a3b8" stroke-width="1.2"/>
  <text x="62" y="322.0" text-anchor="end" font-size="12" fill="#64748b">0</text><text x="62" y="260.1" text-anchor="end" font-size="12" fill="#64748b">88</text><text x="62" y="199.0" text-anchor="end" font-size="12" fill="#64748b">175</text><text x="62" y="137.9" text-anchor="end" font-size="12" fill="#64748b">262</text><text x="62" y="76.0" text-anchor="end" font-size="12" fill="#64748b">350</text>
  <polygon points="76.0,318.0 76.0,110.7 142.2,110.0 208.3,109.3 274.5,108.5 340.6,107.8 406.8,107.1 472.9,106.4 539.1,105.7 605.2,105.0 671.4,104.3 737.5,103.6 803.7,102.9 869.8,102.2 936.0,101.5 936.0,318.0" fill="url(#areaGradient)" />
  <polyline points="76.0,110.7 142.2,110.0 208.3,109.3 274.5,108.5 340.6,107.8 406.8,107.1 472.9,106.4 539.1,105.7 605.2,105.0 671.4,104.3 737.5,103.6 803.7,102.9 869.8,102.2 936.0,101.5" fill="none" stroke="url(#lineGradient)" stroke-width="4" stroke-linejoin="round" stroke-linecap="round"/>
  <line x1="76.0" y1="110.7" x2="76.0" y2="84.7" stroke="#94a3b8" stroke-width="1" stroke-dasharray="3 4" /><rect x="49.0" y="67.7" width="54" height="24" rx="7" fill="#0f172a" /><text x="76.0" y="83.7" text-anchor="middle" font-size="13" font-weight="700" fill="#ffffff">295</text><circle cx="76.0" cy="110.7" r="7" fill="#ffffff" stroke="#2563eb" stroke-width="3" /><circle cx="76.0" cy="110.7" r="3" fill="#14b8a6" /><line x1="142.2" y1="110.0" x2="142.2" y2="145.0" stroke="#94a3b8" stroke-width="1" stroke-dasharray="3 4" /><rect x="115.2" y="128.0" width="54" height="24" rx="7" fill="#0f172a" /><text x="142.2" y="144.0" text-anchor="middle" font-size="13" font-weight="700" fill="#ffffff">296</text><circle cx="142.2" cy="110.0" r="7" fill="#ffffff" stroke="#2563eb" stroke-width="3" /><circle cx="142.2" cy="110.0" r="3" fill="#14b8a6" /><line x1="208.3" y1="109.3" x2="208.3" y2="83.3" stroke="#94a3b8" stroke-width="1" stroke-dasharray="3 4" /><rect x="181.3" y="66.3" width="54" height="24" rx="7" fill="#0f172a" /><text x="208.3" y="82.3" text-anchor="middle" font-size="13" font-weight="700" fill="#ffffff">297</text><circle cx="208.3" cy="109.3" r="7" fill="#ffffff" stroke="#2563eb" stroke-width="3" /><circle cx="208.3" cy="109.3" r="3" fill="#14b8a6" /><line x1="274.5" y1="108.5" x2="274.5" y2="143.5" stroke="#94a3b8" stroke-width="1" stroke-dasharray="3 4" /><rect x="247.5" y="126.5" width="54" height="24" rx="7" fill="#0f172a" /><text x="274.5" y="142.5" text-anchor="middle" font-size="13" font-weight="700" fill="#ffffff">298</text><circle cx="274.5" cy="108.5" r="7" fill="#ffffff" stroke="#2563eb" stroke-width="3" /><circle cx="274.5" cy="108.5" r="3" fill="#14b8a6" /><line x1="340.6" y1="107.8" x2="340.6" y2="81.8" stroke="#94a3b8" stroke-width="1" stroke-dasharray="3 4" /><rect x="313.6" y="64.8" width="54" height="24" rx="7" fill="#0f172a" /><text x="340.6" y="80.8" text-anchor="middle" font-size="13" font-weight="700" fill="#ffffff">299</text><circle cx="340.6" cy="107.8" r="7" fill="#ffffff" stroke="#2563eb" stroke-width="3" /><circle cx="340.6" cy="107.8" r="3" fill="#14b8a6" /><line x1="406.8" y1="107.1" x2="406.8" y2="142.1" stroke="#94a3b8" stroke-width="1" stroke-dasharray="3 4" /><rect x="379.8" y="125.1" width="54" height="24" rx="7" fill="#0f172a" /><text x="406.8" y="141.1" text-anchor="middle" font-size="13" font-weight="700" fill="#ffffff">300</text><circle cx="406.8" cy="107.1" r="7" fill="#ffffff" stroke="#2563eb" stroke-width="3" /><circle cx="406.8" cy="107.1" r="3" fill="#14b8a6" /><line x1="472.9" y1="106.4" x2="472.9" y2="80.4" stroke="#94a3b8" stroke-width="1" stroke-dasharray="3 4" /><rect x="445.9" y="63.4" width="54" height="24" rx="7" fill="#0f172a" /><text x="472.9" y="79.4" text-anchor="middle" font-size="13" font-weight="700" fill="#ffffff">301</text><circle cx="472.9" cy="106.4" r="7" fill="#ffffff" stroke="#2563eb" stroke-width="3" /><circle cx="472.9" cy="106.4" r="3" fill="#14b8a6" /><line x1="539.1" y1="105.7" x2="539.1" y2="140.7" stroke="#94a3b8" stroke-width="1" stroke-dasharray="3 4" /><rect x="512.1" y="123.7" width="54" height="24" rx="7" fill="#0f172a" /><text x="539.1" y="139.7" text-anchor="middle" font-size="13" font-weight="700" fill="#ffffff">302</text><circle cx="539.1" cy="105.7" r="7" fill="#ffffff" stroke="#2563eb" stroke-width="3" /><circle cx="539.1" cy="105.7" r="3" fill="#14b8a6" /><line x1="605.2" y1="105.0" x2="605.2" y2="79.0" stroke="#94a3b8" stroke-width="1" stroke-dasharray="3 4" /><rect x="578.2" y="62.0" width="54" height="24" rx="7" fill="#0f172a" /><text x="605.2" y="78.0" text-anchor="middle" font-size="13" font-weight="700" fill="#ffffff">303</text><circle cx="605.2" cy="105.0" r="7" fill="#ffffff" stroke="#2563eb" stroke-width="3" /><circle cx="605.2" cy="105.0" r="3" fill="#14b8a6" /><line x1="671.4" y1="104.3" x2="671.4" y2="139.3" stroke="#94a3b8" stroke-width="1" stroke-dasharray="3 4" /><rect x="644.4" y="122.3" width="54" height="24" rx="7" fill="#0f172a" /><text x="671.4" y="138.3" text-anchor="middle" font-size="13" font-weight="700" fill="#ffffff">304</text><circle cx="671.4" cy="104.3" r="7" fill="#ffffff" stroke="#2563eb" stroke-width="3" /><circle cx="671.4" cy="104.3" r="3" fill="#14b8a6" /><line x1="737.5" y1="103.6" x2="737.5" y2="77.6" stroke="#94a3b8" stroke-width="1" stroke-dasharray="3 4" /><rect x="710.5" y="60.6" width="54" height="24" rx="7" fill="#0f172a" /><text x="737.5" y="76.6" text-anchor="middle" font-size="13" font-weight="700" fill="#ffffff">305</text><circle cx="737.5" cy="103.6" r="7" fill="#ffffff" stroke="#2563eb" stroke-width="3" /><circle cx="737.5" cy="103.6" r="3" fill="#14b8a6" /><line x1="803.7" y1="102.9" x2="803.7" y2="137.9" stroke="#94a3b8" stroke-width="1" stroke-dasharray="3 4" /><rect x="776.7" y="120.9" width="54" height="24" rx="7" fill="#0f172a" /><text x="803.7" y="136.9" text-anchor="middle" font-size="13" font-weight="700" fill="#ffffff">306</text><circle cx="803.7" cy="102.9" r="7" fill="#ffffff" stroke="#2563eb" stroke-width="3" /><circle cx="803.7" cy="102.9" r="3" fill="#14b8a6" /><line x1="869.8" y1="102.2" x2="869.8" y2="76.2" stroke="#94a3b8" stroke-width="1" stroke-dasharray="3 4" /><rect x="842.8" y="59.2" width="54" height="24" rx="7" fill="#0f172a" /><text x="869.8" y="75.2" text-anchor="middle" font-size="13" font-weight="700" fill="#ffffff">307</text><circle cx="869.8" cy="102.2" r="7" fill="#ffffff" stroke="#2563eb" stroke-width="3" /><circle cx="869.8" cy="102.2" r="3" fill="#14b8a6" /><line x1="936.0" y1="101.5" x2="936.0" y2="136.5" stroke="#94a3b8" stroke-width="1" stroke-dasharray="3 4" /><rect x="909.0" y="119.5" width="54" height="24" rx="7" fill="#0f172a" /><text x="936.0" y="135.5" text-anchor="middle" font-size="13" font-weight="700" fill="#ffffff">308</text><circle cx="936.0" cy="101.5" r="7" fill="#ffffff" stroke="#2563eb" stroke-width="3" /><circle cx="936.0" cy="101.5" r="3" fill="#14b8a6" />
  <text x="76.0" y="358" text-anchor="middle" font-size="12" fill="#475569">08-13 11:18</text><text x="142.2" y="358" text-anchor="middle" font-size="12" fill="#475569">08-13 11:20</text><text x="208.3" y="358" text-anchor="middle" font-size="12" fill="#475569">08-13 11:21</text><text x="274.5" y="358" text-anchor="middle" font-size="12" fill="#475569">08-13 11:25</text><text x="340.6" y="358" text-anchor="middle" font-size="12" fill="#475569">08-13 11:28</text><text x="406.8" y="358" text-anchor="middle" font-size="12" fill="#475569">08-13 11:29</text><text x="472.9" y="358" text-anchor="middle" font-size="12" fill="#475569">08-13 11:32</text><text x="539.1" y="358" text-anchor="middle" font-size="12" fill="#475569">08-13 11:35</text><text x="605.2" y="358" text-anchor="middle" font-size="12" fill="#475569">08-13 11:44</text><text x="671.4" y="358" text-anchor="middle" font-size="12" fill="#475569">08-13 11:46</text><text x="737.5" y="358" text-anchor="middle" font-size="12" fill="#475569">08-13 11:48</text><text x="803.7" y="358" text-anchor="middle" font-size="12" fill="#475569">08-13 11:51</text><text x="869.8" y="358" text-anchor="middle" font-size="12" fill="#475569">08-13 11:53</text><text x="936.0" y="358" text-anchor="middle" font-size="12" fill="#475569">08-14 12:24</text>
</svg>
