<svg xmlns="http://www.w3.org/2000/svg" width="980" height="390" viewBox="0 0 980 390">
  <defs>
    <linearGradient id="lineGradient" x1="0" y1="0" x2="1" y2="0">
      <stop offset="0%" stop-color="#2563eb" />
      <stop offset="100%" stop-color="#14b8a6" />
    </linearGradient>
    <linearGradient id="areaGradient" x1="0" y1="0" x2="0" y2="1">
      <stop offset="0%" stop-color="#93c5fd" stop-opacity="0.38" />
      <stop offset="100%" stop-color="#ccfbf1" stop-opacity="0.05" />
    </linearGradient>
    <filter id="softShadow" x="-20%" y="-20%" width="140%" height="140%">
      <feDropShadow dx="0" dy="8" stdDeviation="10" flood-color="#0f172a" flood-opacity="0.12" />
    </filter>
  </defs>
  <rect width="100%" height="100%" rx="16" fill="#f8fafc"/>
  <rect x="18" y="18" width="944" height="354" rx="14" fill="#ffffff" filter="url(#softShadow)"/>
  <text x="76" y="42" font-size="22" font-weight="800" font-family="Arial, sans-serif" fill="#0f172a">Labelme 标注进度趋势</text>
  <text x="76" y="64" font-size="13" font-family="Arial, sans-serif" fill="#64748b">当前累计 231/403，完成 57.3%。节点标签显示每次同步后的累计标注数。</text>
  <line x1="76" y1="318.0" x2="936" y2="318.0" stroke="#e2e8f0" stroke-width="1" /><line x1="76" y1="257.0" x2="936" y2="257.0" stroke="#e2e8f0" stroke-width="1" /><line x1="76" y1="195.0" x2="936" y2="195.0" stroke="#e2e8f0" stroke-width="1" /><line x1="76" y1="133.0" x2="936" y2="133.0" stroke="#e2e8f0" stroke-width="1" /><line x1="76" y1="72.0" x2="936" y2="72.0" stroke="#e2e8f0" stroke-width="1" />
  <line x1="76" y1="318" x2="936" y2="318" stroke="#94a3b8" stroke-width="1.2"/>
  <line x1="76" y1="72" x2="76" y2="318" stroke="#94a3b8" stroke-width="1.2"/>
  <text x="62" y="322.0" text-anchor="end" font-size="12" fill="#64748b">0</text><text x="62" y="261.0" text-anchor="end" font-size="12" fill="#64748b">62</text><text x="62" y="199.0" text-anchor="end" font-size="12" fill="#64748b">125</text><text x="62" y="137.0" text-anchor="end" font-size="12" fill="#64748b">188</text><text x="62" y="76.0" text-anchor="end" font-size="12" fill="#64748b">250</text>
  <polygon points="76.0,318.0 76.0,107.4 142.2,106.4 208.3,105.5 274.5,103.5 340.6,102.5 406.8,101.5 472.9,100.5 539.1,99.6 605.2,97.6 671.4,95.6 737.5,94.6 803.7,93.6 869.8,91.7 936.0,90.7 936.0,318.0" fill="url(#areaGradient)" />
  <polyline points="76.0,107.4 142.2,106.4 208.3,105.5 274.5,103.5 340.6,102.5 406.8,101.5 472.9,100.5 539.1,99.6 605.2,97.6 671.4,95.6 737.5,94.6 803.7,93.6 869.8,91.7 936.0,90.7" fill="none" stroke="url(#lineGradient)" stroke-width="4" stroke-linejoin="round" stroke-linecap="round"/>
  <line x1="76.0" y1="107.4" x2="76.0" y2="81.4" stroke="#94a3b8" stroke-width="1" stroke-dasharray="3 4" /><rect x="49.0" y="64.4" width="54" height="24" rx="7" fill="#0f172a" /><text x="76.0" y="80.4" text-anchor="middle" font-size="13" font-weight="700" fill="#ffffff">214</text><circle cx="76.0" cy="107.4" r="7" fill="#ffffff" stroke="#2563eb" stroke-width="3" /><circle cx="76.0" cy="107.4" r="3" fill="#14b8a6" /><line x1="142.2" y1="106.4" x2="142.2" y2="141.4" stroke="#94a3b8" stroke-width="1" stroke-dasharray="3 4" /><rect x="115.2" y="124.4" width="54" height="24" rx="7" fill="#0f172a" /><text x="142.2" y="140.4" text-anchor="middle" font-size="13" font-weight="700" fill="#ffffff">215</text><circle cx="142.2" cy="106.4" r="7" fill="#ffffff" stroke="#2563eb" stroke-width="3" /><circle cx="142.2" cy="106.4" r="3" fill="#14b8a6" /><line x1="208.3" y1="105.5" x2="208.3" y2="79.5" stroke="#94a3b8" stroke-width="1" stroke-dasharray="3 4" /><rect x="181.3" y="62.5" width="54" height="24" rx="7" fill="#0f172a" /><text x="208.3" y="78.5" text-anchor="middle" font-size="13" font-weight="700" fill="#ffffff">216</text><circle cx="208.3" cy="105.5" r="7" fill="#ffffff" stroke="#2563eb" stroke-width="3" /><circle cx="208.3" cy="105.5" r="3" fill="#14b8a6" /><line x1="274.5" y1="103.5" x2="274.5" y2="138.5" stroke="#94a3b8" stroke-width="1" stroke-dasharray="3 4" /><rect x="247.5" y="121.5" width="54" height="24" rx="7" fill="#0f172a" /><text x="274.5" y="137.5" text-anchor="middle" font-size="13" font-weight="700" fill="#ffffff">218</text><circle cx="274.5" cy="103.5" r="7" fill="#ffffff" stroke="#2563eb" stroke-width="3" /><circle cx="274.5" cy="103.5" r="3" fill="#14b8a6" /><line x1="340.6" y1="102.5" x2="340.6" y2="76.5" stroke="#94a3b8" stroke-width="1" stroke-dasharray="3 4" /><rect x="313.6" y="59.5" width="54" height="24" rx="7" fill="#0f172a" /><text x="340.6" y="75.5" text-anchor="middle" font-size="13" font-weight="700" fill="#ffffff">219</text><circle cx="340.6" cy="102.5" r="7" fill="#ffffff" stroke="#2563eb" stroke-width="3" /><circle cx="340.6" cy="102.5" r="3" fill="#14b8a6" /><line x1="406.8" y1="101.5" x2="406.8" y2="136.5" stroke="#94a3b8" stroke-width="1" stroke-dasharray="3 4" /><rect x="379.8" y="119.5" width="54" height="24" rx="7" fill="#0f172a" /><text x="406.8" y="135.5" text-anchor="middle" font-size="13" font-weight="700" fill="#ffffff">220</text><circle cx="406.8" cy="101.5" r="7" fill="#ffffff" stroke="#2563eb" stroke-width="3" /><circle cx="406.8" cy="101.5" r="3" fill="#14b8a6" /><line x1="472.9" y1="100.5" x2="472.9" y2="74.5" stroke="#94a3b8" stroke-width="1" stroke-dasharray="3 4" /><rect x="445.9" y="57.5" width="54" height="24" rx="7" fill="#0f172a" /><text x="472.9" y="73.5" text-anchor="middle" font-size="13" font-weight="700" fill="#ffffff">221</text><circle cx="472.9" cy="100.5" r="7" fill="#ffffff" stroke="#2563eb" stroke-width="3" /><circle cx="472.9" cy="100.5" r="3" fill="#14b8a6" /><line x1="539.1" y1="99.6" x2="539.1" y2="134.6" stroke="#94a3b8" stroke-width="1" stroke-dasharray="3 4" /><rect x="512.1" y="117.6" width="54" height="24" rx="7" fill="#0f172a" /><text x="539.1" y="133.6" text-anchor="middle" font-size="13" font-weight="700" fill="#ffffff">222</text><circle cx="539.1" cy="99.6" r="7" fill="#ffffff" stroke="#2563eb" stroke-width="3" /><circle cx="539.1" cy="99.6" r="3" fill="#14b8a6" /><line x1="605.2" y1="97.6" x2="605.2" y2="71.6" stroke="#94a3b8" stroke-width="1" stroke-dasharray="3 4" /><rect x="578.2" y="54.6" width="54" height="24" rx="7" fill="#0f172a" /><text x="605.2" y="70.6" text-anchor="middle" font-size="13" font-weight="700" fill="#ffffff">224</text><circle cx="605.2" cy="97.6" r="7" fill="#ffffff" stroke="#2563eb" stroke-width="3" /><circle cx="605.2" cy="97.6" r="3" fill="#14b8a6" /><line x1="671.4" y1="95.6" x2="671.4" y2="130.6" stroke="#94a3b8" stroke-width="1" stroke-dasharray="3 4" /><rect x="644.4" y="113.6" width="54" height="24" rx="7" fill="#0f172a" /><text x="671.4" y="129.6" text-anchor="middle" font-size="13" font-weight="700" fill="#ffffff">226</text><circle cx="671.4" cy="95.6" r="7" fill="#ffffff" stroke="#2563eb" stroke-width="3" /><circle cx="671.4" cy="95.6" r="3" fill="#14b8a6" /><line x1="737.5" y1="94.6" x2="737.5" y2="68.6" stroke="#94a3b8" stroke-width="1" stroke-dasharray="3 4" /><rect x="710.5" y="51.6" width="54" height="24" rx="7" fill="#0f172a" /><text x="737.5" y="67.6" text-anchor="middle" font-size="13" font-weight="700" fill="#ffffff">227</text><circle cx="737.5" cy="94.6" r="7" fill="#ffffff" stroke="#2563eb" stroke-width="3" /><circle cx="737.5" cy="94.6" r="3" fill="#14b8a6" /><line x1="803.7" y1="93.6" x2="803.7" y2="128.6" stroke="#94a3b8" stroke-width="1" stroke-dasharray="3 4" /><rect x="776.7" y="111.6" width="54" height="24" rx="7" fill="#0f172a" /><text x="803.7" y="127.6" text-anchor="middle" font-size="13" font-weight="700" fill="#ffffff">228</text><circle cx="803.7" cy="93.6" r="7" fill="#ffffff" stroke="#2563eb" stroke-width="3" /><circle cx="803.7" cy="93.6" r="3" fill="#14b8a6" /><line x1="869.8" y1="91.7" x2="869.8" y2="65.7" stroke="#94a3b8" stroke-width="1" stroke-dasharray="3 4" /><rect x="842.8" y="48.7" width="54" height="24" rx="7" fill="#0f172a" /><text x="869.8" y="64.7" text-anchor="middle" font-size="13" font-weight="700" fill="#ffffff">230</text><circle cx="869.8" cy="91.7" r="7" fill="#ffffff" stroke="#2563eb" stroke-width="3" /><circle cx="869.8" cy="91.7" r="3" fill="#14b8a6" /><line x1="936.0" y1="90.7" x2="936.0" y2="125.7" stroke="#94a3b8" stroke-width="1" stroke-dasharray="3 4" /><rect x="909.0" y="108.7" width="54" height="24" rx="7" fill="#0f172a" /><text x="936.0" y="124.7" text-anchor="middle" font-size="13" font-weight="700" fill="#ffffff">231</text><circle cx="936.0" cy="90.7" r="7" fill="#ffffff" stroke="#2563eb" stroke-width="3" /><circle cx="936.0" cy="90.7" r="3" fill="#14b8a6" />
  <text x="76.0" y="358" text-anchor="middle" font-size="12" fill="#475569">08-10 12:02</text><text x="142.2" y="358" text-anchor="middle" font-size="12" fill="#475569">08-10 12:03</text><text x="208.3" y="358" text-anchor="middle" font-size="12" fill="#475569">08-10 12:05</text><text x="274.5" y="358" text-anchor="middle" font-size="12" fill="#475569">08-10 12:07</text><text x="340.6" y="358" text-anchor="middle" font-size="12" fill="#475569">08-10 12:10</text><text x="406.8" y="358" text-anchor="middle" font-size="12" fill="#475569">08-10 12:12</text><text x="472.9" y="358" text-anchor="middle" font-size="12" fill="#475569">08-10 12:13</text><text x="539.1" y="358" text-anchor="middle" font-size="12" fill="#475569">08-10 12:17</text><text x="605.2" y="358" text-anchor="middle" font-size="12" fill="#475569">08-11 12:11</text><text x="671.4" y="358" text-anchor="middle" font-size="12" fill="#475569">08-11 12:11</text><text x="737.5" y="358" text-anchor="middle" font-size="12" fill="#475569">08-11 12:13</text><text x="803.7" y="358" text-anchor="middle" font-size="12" fill="#475569">08-11 12:13</text><text x="869.8" y="358" text-anchor="middle" font-size="12" fill="#475569">08-11 12:14</text><text x="936.0" y="358" text-anchor="middle" font-size="12" fill="#475569">08-11 12:19</text>
</svg>
