<svg xmlns="http://www.w3.org/2000/svg" width="980" height="390" viewBox="0 0 980 390">
  <defs>
    <linearGradient id="lineGradient" x1="0" y1="0" x2="1" y2="0">
      <stop offset="0%" stop-color="#2563eb" />
      <stop offset="100%" stop-color="#14b8a6" />
    </linearGradient>
    <linearGradient id="areaGradient" x1="0" y1="0" x2="0" y2="1">
      <stop offset="0%" stop-color="#93c5fd" stop-opacity="0.38" />
      <stop offset="100%" stop-color="#ccfbf1" stop-opacity="0.05" />
    </linearGradient>
    <filter id="softShadow" x="-20%" y="-20%" width="140%" height="140%">
      <feDropShadow dx="0" dy="8" stdDeviation="10" flood-color="#0f172a" flood-opacity="0.12" />
    </filter>
  </defs>
  <rect width="100%" height="100%" rx="16" fill="#f8fafc"/>
  <rect x="18" y="18" width="944" height="354" rx="14" fill="#ffffff" filter="url(#softShadow)"/>
  <text x="76" y="42" font-size="22" font-weight="800" font-family="Arial, sans-serif" fill="#0f172a">Labelme 标注进度趋势</text>
  <text x="76" y="64" font-size="13" font-family="Arial, sans-serif" fill="#64748b">当前累计 55/403，完成 13.6%。节点标签显示每次同步后的累计标注数。</text>
  <line x1="76" y1="318.0" x2="936" y2="318.0" stroke="#e2e8f0" stroke-width="1" /><line x1="76" y1="256.5" x2="936" y2="256.5" stroke="#e2e8f0" stroke-width="1" /><line x1="76" y1="195.0" x2="936" y2="195.0" stroke="#e2e8f0" stroke-width="1" /><line x1="76" y1="133.5" x2="936" y2="133.5" stroke="#e2e8f0" stroke-width="1" /><line x1="76" y1="72.0" x2="936" y2="72.0" stroke="#e2e8f0" stroke-width="1" />
  <line x1="76" y1="318" x2="936" y2="318" stroke="#94a3b8" stroke-width="1.2"/>
  <line x1="76" y1="72" x2="76" y2="318" stroke="#94a3b8" stroke-width="1.2"/>
  <text x="62" y="322.0" text-anchor="end" font-size="12" fill="#64748b">0</text><text x="62" y="260.5" text-anchor="end" font-size="12" fill="#64748b">15</text><text x="62" y="199.0" text-anchor="end" font-size="12" fill="#64748b">30</text><text x="62" y="137.5" text-anchor="end" font-size="12" fill="#64748b">45</text><text x="62" y="76.0" text-anchor="end" font-size="12" fill="#64748b">60</text>
  <polygon points="76.0,318.0 76.0,145.8 142.2,141.7 208.3,137.6 274.5,133.5 340.6,129.4 406.8,125.3 472.9,121.2 539.1,117.1 605.2,113.0 671.4,108.9 737.5,104.8 803.7,100.7 869.8,96.6 936.0,92.5 936.0,318.0" fill="url(#areaGradient)" />
  <polyline points="76.0,145.8 142.2,141.7 208.3,137.6 274.5,133.5 340.6,129.4 406.8,125.3 472.9,121.2 539.1,117.1 605.2,113.0 671.4,108.9 737.5,104.8 803.7,100.7 869.8,96.6 936.0,92.5" fill="none" stroke="url(#lineGradient)" stroke-width="4" stroke-linejoin="round" stroke-linecap="round"/>
  <line x1="76.0" y1="145.8" x2="76.0" y2="119.8" stroke="#94a3b8" stroke-width="1" stroke-dasharray="3 4" /><rect x="53.0" y="102.8" width="46" height="24" rx="7" fill="#0f172a" /><text x="76.0" y="118.8" text-anchor="middle" font-size="13" font-weight="700" fill="#ffffff">42</text><circle cx="76.0" cy="145.8" r="7" fill="#ffffff" stroke="#2563eb" stroke-width="3" /><circle cx="76.0" cy="145.8" r="3" fill="#14b8a6" /><line x1="142.2" y1="141.7" x2="142.2" y2="176.7" stroke="#94a3b8" stroke-width="1" stroke-dasharray="3 4" /><rect x="119.2" y="159.7" width="46" height="24" rx="7" fill="#0f172a" /><text x="142.2" y="175.7" text-anchor="middle" font-size="13" font-weight="700" fill="#ffffff">43</text><circle cx="142.2" cy="141.7" r="7" fill="#ffffff" stroke="#2563eb" stroke-width="3" /><circle cx="142.2" cy="141.7" r="3" fill="#14b8a6" /><line x1="208.3" y1="137.6" x2="208.3" y2="111.6" stroke="#94a3b8" stroke-width="1" stroke-dasharray="3 4" /><rect x="185.3" y="94.6" width="46" height="24" rx="7" fill="#0f172a" /><text x="208.3" y="110.6" text-anchor="middle" font-size="13" font-weight="700" fill="#ffffff">44</text><circle cx="208.3" cy="137.6" r="7" fill="#ffffff" stroke="#2563eb" stroke-width="3" /><circle cx="208.3" cy="137.6" r="3" fill="#14b8a6" /><line x1="274.5" y1="133.5" x2="274.5" y2="168.5" stroke="#94a3b8" stroke-width="1" stroke-dasharray="3 4" /><rect x="251.5" y="151.5" width="46" height="24" rx="7" fill="#0f172a" /><text x="274.5" y="167.5" text-anchor="middle" font-size="13" font-weight="700" fill="#ffffff">45</text><circle cx="274.5" cy="133.5" r="7" fill="#ffffff" stroke="#2563eb" stroke-width="3" /><circle cx="274.5" cy="133.5" r="3" fill="#14b8a6" /><line x1="340.6" y1="129.4" x2="340.6" y2="103.4" stroke="#94a3b8" stroke-width="1" stroke-dasharray="3 4" /><rect x="317.6" y="86.4" width="46" height="24" rx="7" fill="#0f172a" /><text x="340.6" y="102.4" text-anchor="middle" font-size="13" font-weight="700" fill="#ffffff">46</text><circle cx="340.6" cy="129.4" r="7" fill="#ffffff" stroke="#2563eb" stroke-width="3" /><circle cx="340.6" cy="129.4" r="3" fill="#14b8a6" /><line x1="406.8" y1="125.3" x2="406.8" y2="160.3" stroke="#94a3b8" stroke-width="1" stroke-dasharray="3 4" /><rect x="383.8" y="143.3" width="46" height="24" rx="7" fill="#0f172a" /><text x="406.8" y="159.3" text-anchor="middle" font-size="13" font-weight="700" fill="#ffffff">47</text><circle cx="406.8" cy="125.3" r="7" fill="#ffffff" stroke="#2563eb" stroke-width="3" /><circle cx="406.8" cy="125.3" r="3" fill="#14b8a6" /><line x1="472.9" y1="121.2" x2="472.9" y2="95.2" stroke="#94a3b8" stroke-width="1" stroke-dasharray="3 4" /><rect x="449.9" y="78.2" width="46" height="24" rx="7" fill="#0f172a" /><text x="472.9" y="94.2" text-anchor="middle" font-size="13" font-weight="700" fill="#ffffff">48</text><circle cx="472.9" cy="121.2" r="7" fill="#ffffff" stroke="#2563eb" stroke-width="3" /><circle cx="472.9" cy="121.2" r="3" fill="#14b8a6" /><line x1="539.1" y1="117.1" x2="539.1" y2="152.1" stroke="#94a3b8" stroke-width="1" stroke-dasharray="3 4" /><rect x="516.1" y="135.1" width="46" height="24" rx="7" fill="#0f172a" /><text x="539.1" y="151.1" text-anchor="middle" font-size="13" font-weight="700" fill="#ffffff">49</text><circle cx="539.1" cy="117.1" r="7" fill="#ffffff" stroke="#2563eb" stroke-width="3" /><circle cx="539.1" cy="117.1" r="3" fill="#14b8a6" /><line x1="605.2" y1="113.0" x2="605.2" y2="87.0" stroke="#94a3b8" stroke-width="1" stroke-dasharray="3 4" /><rect x="582.2" y="70.0" width="46" height="24" rx="7" fill="#0f172a" /><text x="605.2" y="86.0" text-anchor="middle" font-size="13" font-weight="700" fill="#ffffff">50</text><circle cx="605.2" cy="113.0" r="7" fill="#ffffff" stroke="#2563eb" stroke-width="3" /><circle cx="605.2" cy="113.0" r="3" fill="#14b8a6" /><line x1="671.4" y1="108.9" x2="671.4" y2="143.9" stroke="#94a3b8" stroke-width="1" stroke-dasharray="3 4" /><rect x="648.4" y="126.9" width="46" height="24" rx="7" fill="#0f172a" /><text x="671.4" y="142.9" text-anchor="middle" font-size="13" font-weight="700" fill="#ffffff">51</text><circle cx="671.4" cy="108.9" r="7" fill="#ffffff" stroke="#2563eb" stroke-width="3" /><circle cx="671.4" cy="108.9" r="3" fill="#14b8a6" /><line x1="737.5" y1="104.8" x2="737.5" y2="78.8" stroke="#94a3b8" stroke-width="1" stroke-dasharray="3 4" /><rect x="714.5" y="61.8" width="46" height="24" rx="7" fill="#0f172a" /><text x="737.5" y="77.8" text-anchor="middle" font-size="13" font-weight="700" fill="#ffffff">52</text><circle cx="737.5" cy="104.8" r="7" fill="#ffffff" stroke="#2563eb" stroke-width="3" /><circle cx="737.5" cy="104.8" r="3" fill="#14b8a6" /><line x1="803.7" y1="100.7" x2="803.7" y2="135.7" stroke="#94a3b8" stroke-width="1" stroke-dasharray="3 4" /><rect x="780.7" y="118.7" width="46" height="24" rx="7" fill="#0f172a" /><text x="803.7" y="134.7" text-anchor="middle" font-size="13" font-weight="700" fill="#ffffff">53</text><circle cx="803.7" cy="100.7" r="7" fill="#ffffff" stroke="#2563eb" stroke-width="3" /><circle cx="803.7" cy="100.7" r="3" fill="#14b8a6" /><line x1="869.8" y1="96.6" x2="869.8" y2="70.6" stroke="#94a3b8" stroke-width="1" stroke-dasharray="3 4" /><rect x="846.8" y="53.6" width="46" height="24" rx="7" fill="#0f172a" /><text x="869.8" y="69.6" text-anchor="middle" font-size="13" font-weight="700" fill="#ffffff">54</text><circle cx="869.8" cy="96.6" r="7" fill="#ffffff" stroke="#2563eb" stroke-width="3" /><circle cx="869.8" cy="96.6" r="3" fill="#14b8a6" /><line x1="936.0" y1="92.5" x2="936.0" y2="127.5" stroke="#94a3b8" stroke-width="1" stroke-dasharray="3 4" /><rect x="913.0" y="110.5" width="46" height="24" rx="7" fill="#0f172a" /><text x="936.0" y="126.5" text-anchor="middle" font-size="13" font-weight="700" fill="#ffffff">55</text><circle cx="936.0" cy="92.5" r="7" fill="#ffffff" stroke="#2563eb" stroke-width="3" /><circle cx="936.0" cy="92.5" r="3" fill="#14b8a6" />
  <text x="76.0" y="358" text-anchor="middle" font-size="12" fill="#475569">08-03 17:18</text><text x="142.2" y="358" text-anchor="middle" font-size="12" fill="#475569">08-03 17:33</text><text x="208.3" y="358" text-anchor="middle" font-size="12" fill="#475569">08-04 12:11</text><text x="274.5" y="358" text-anchor="middle" font-size="12" fill="#475569">08-04 12:18</text><text x="340.6" y="358" text-anchor="middle" font-size="12" fill="#475569">08-04 12:22</text><text x="406.8" y="358" text-anchor="middle" font-size="12" fill="#475569">08-04 12:30</text><text x="472.9" y="358" text-anchor="middle" font-size="12" fill="#475569">08-04 12:34</text><text x="539.1" y="358" text-anchor="middle" font-size="12" fill="#475569">08-04 12:46</text><text x="605.2" y="358" text-anchor="middle" font-size="12" fill="#475569">08-04 12:48</text><text x="671.4" y="358" text-anchor="middle" font-size="12" fill="#475569">08-04 12:52</text><text x="737.5" y="358" text-anchor="middle" font-size="12" fill="#475569">08-04 12:56</text><text x="803.7" y="358" text-anchor="middle" font-size="12" fill="#475569">08-04 13:00</text><text x="869.8" y="358" text-anchor="middle" font-size="12" fill="#475569">08-04 13:03</text><text x="936.0" y="358" text-anchor="middle" font-size="12" fill="#475569">08-04 13:09</text>
</svg>
